<svg xmlns="http://www.w3.org/2000/svg" viewBox="0 0 400 400">
  <defs><linearGradient id="g" x1="0" y1="0" x2="0" y2="1"><stop offset="0" stop-color="#e2f4ee"/><stop offset="1" stop-color="#cce9df"/></linearGradient></defs>
  <rect width="400" height="400" fill="url(#g)"/>
  <path d="M52 400 C52 298 118 258 200 258 C282 258 348 298 348 400 Z" fill="#2E9E78"/>
  <path d="M200 258 L174 300 Q200 316 226 300 Z" fill="#1f7e5e"/>
  <rect x="182" y="224" width="36" height="42" rx="14" fill="#f1c27d"/>
  <path d="M176 250 C168 288 178 322 200 324 C222 322 232 288 224 250" fill="none" stroke="#eef3f5" stroke-width="6" stroke-linecap="round"/>
  <circle cx="200" cy="332" r="9" fill="#cdd8dc" stroke="#9fb0b6" stroke-width="2"/>
  <!-- head -->
  <circle cx="200" cy="162" r="72" fill="#f1c27d"/>
  <circle cx="128" cy="166" r="12" fill="#f1c27d"/>
  <circle cx="272" cy="166" r="12" fill="#f1c27d"/>
  <!-- beard -->
  <path d="M138 168 C138 240 168 272 200 272 C232 272 262 240 262 168 C248 200 232 210 200 210 C168 210 152 200 138 168 Z" fill="#5a3a22"/>
  <!-- short hair -->
  <path d="M126 166 C128 108 272 108 274 166 C274 140 248 124 200 124 C152 124 126 140 126 166 Z" fill="#5a3a22"/>
  <!-- face -->
  <ellipse cx="180" cy="160" rx="5.5" ry="7.5" fill="#2a1d12"/>
  <ellipse cx="220" cy="160" rx="5.5" ry="7.5" fill="#2a1d12"/>
  <path d="M170 145 q10 -7 20 -1" stroke="#4a3018" stroke-width="4" fill="none" stroke-linecap="round"/>
  <path d="M210 144 q10 -6 20 1" stroke="#4a3018" stroke-width="4" fill="none" stroke-linecap="round"/>
  <path d="M180 192 q20 12 40 0" stroke="#5a3a22" stroke-width="7" fill="none" stroke-linecap="round"/>
  <path d="M186 196 q14 9 28 0" stroke="#a85f4a" stroke-width="4" fill="none" stroke-linecap="round"/>
</svg>
