<svg xmlns="http://www.w3.org/2000/svg" viewBox="0 0 400 400">
  <defs><linearGradient id="g1" x1="0" y1="0" x2="0" y2="1"><stop offset="0" stop-color="#dff3f3"/><stop offset="1" stop-color="#bce4e4"/></linearGradient></defs>
  <rect width="400" height="400" fill="url(#g1)"/>
  <!-- scrubs -->
  <path d="M52 400 C52 298 118 258 200 258 C282 258 348 298 348 400 Z" fill="#14A3A3"/>
  <path d="M200 258 L174 300 Q200 316 226 300 Z" fill="#0e7e7e"/>
  <rect x="182" y="224" width="36" height="42" rx="14" fill="#6b4226"/>
  <!-- stethoscope -->
  <path d="M176 250 C168 288 178 322 200 324 C222 322 232 288 224 250" fill="none" stroke="#eef3f5" stroke-width="6" stroke-linecap="round"/>
  <circle cx="200" cy="332" r="9" fill="#cdd8dc" stroke="#9fb0b6" stroke-width="2"/>
  <!-- head -->
  <circle cx="200" cy="162" r="72" fill="#6b4226"/>
  <circle cx="128" cy="166" r="12" fill="#6b4226"/>
  <circle cx="272" cy="166" r="12" fill="#6b4226"/>
  <!-- hair -->
  <path d="M128 168 C128 96 272 96 272 168 C272 138 246 120 200 120 C154 120 128 138 128 168 Z" fill="#1d1a18"/>
  <!-- nurse cap -->
  <path d="M150 112 Q200 78 250 112 L244 128 Q200 104 156 128 Z" fill="#ffffff"/>
  <rect x="196" y="92" width="8" height="24" fill="#e23b3b"/>
  <rect x="188" y="100" width="24" height="8" fill="#e23b3b"/>
  <!-- face -->
  <ellipse cx="180" cy="162" rx="5.5" ry="7.5" fill="#241b16"/>
  <ellipse cx="220" cy="162" rx="5.5" ry="7.5" fill="#241b16"/>
  <path d="M170 147 q10 -7 20 -1" stroke="#241b16" stroke-width="4" fill="none" stroke-linecap="round"/>
  <path d="M210 146 q10 -6 20 1" stroke="#241b16" stroke-width="4" fill="none" stroke-linecap="round"/>
  <path d="M182 190 q18 15 36 0" stroke="#7a3b30" stroke-width="5" fill="none" stroke-linecap="round"/>
</svg>
